<svg version="1.1" xmlns="http://www.w3.org/2000/svg" xmlns:xlink="http://www.w3.org/1999/xlink" x="0px" y="0px" width="271.944px" height="140.821px" viewBox="76.617 140.821 271.944 140.821" enable-background="new 76.617 140.821 271.944 140.821" xml:space="preserve">
    <g>
        <g>
            <path fill="#FFFFFF" d="M291.37,193.288v-0.839c0-1.415,1.157-2.574,2.571-2.574h5.149c1.416,0,2.572,1.16,2.572,2.574v0.515
                h-1.672v-0.515c0-0.489-0.41-0.9-0.9-0.9h-5.149c-0.487,0-0.897,0.411-0.897,0.9v0.839c0,0.484,0.41,0.896,0.897,0.896h5.149
                c1.416,0,2.572,1.164,2.572,2.578v0.835c0,1.419-1.156,2.574-2.572,2.574h-5.149c-1.414,0-2.571-1.155-2.571-2.574v-0.515h1.674
                v0.515c0,0.489,0.41,0.9,0.897,0.9h5.149c0.49,0,0.9-0.411,0.9-0.9v-0.835c0-0.493-0.41-0.899-0.9-0.899h-5.149
                C292.527,195.862,291.37,194.703,291.37,193.288z"></path>
            <path fill="#FFFFFF" d="M302.993,198.315h1.674v1.855h-1.674V198.315z"></path>
            <path fill="#FFFFFF" d="M313.715,189.874c1.418,0,2.576,1.16,2.576,2.574v0.839c0,0.718-0.357,1.35-0.826,1.734
                c0.469,0.39,0.826,1.017,0.826,1.739v3.409h-1.674v-3.409c0-0.493-0.412-0.899-0.902-0.899h-6.047v4.309h-1.676v-10.296H313.715z
                 M307.668,191.548v2.635h6.047c0.49,0,0.902-0.411,0.902-0.896v-0.839c0-0.489-0.412-0.9-0.902-0.9H307.668z"></path>
            <path fill="#FFFFFF" d="M317.616,198.315h1.674v1.855h-1.674V198.315z"></path>
            <path fill="#FFFFFF" d="M330.913,197.596c0,1.419-1.156,2.574-2.572,2.574h-5.148c-1.416,0-2.576-1.155-2.576-2.574v-5.148
                c0-1.415,1.16-2.574,2.576-2.574h5.148c1.416,0,2.572,1.16,2.572,2.574V197.596z M328.34,198.497c0.49,0,0.9-0.411,0.9-0.9v-5.148
                c0-0.489-0.41-0.9-0.9-0.9h-5.148c-0.49,0-0.9,0.411-0.9,0.9v5.148c0,0.489,0.41,0.9,0.9,0.9H328.34z"></path>
            <path fill="#FFFFFF" d="M332.241,198.315h1.676v1.855h-1.676V198.315z"></path>
        </g>
        <g>
            <path fill="#FFFFFF" d="M155.905,155.468h-54.958c-3.482,0-6.431,2.939-6.431,6.412v36.635c0,3.486,2.948,6.429,6.431,6.429
                h54.958v11.911h-54.958c-10.09,0-18.339-8.247-18.339-18.338v-36.635c0-10.074,8.249-18.322,18.339-18.322h54.958V155.468z"></path>
            <path fill="#FFFFFF" d="M163.189,143.557h24.278v73.295h-11.909v-61.386h-12.369V143.557z"></path>
            <path fill="#FFFFFF" d="M194.708,161.879c0-10.074,8.247-18.322,18.335-18.322h36.646c10.09,0,18.334,8.248,18.334,18.322v36.635
                c0,10.093-8.244,18.338-18.334,18.338h-36.646c-10.088,0-18.335-8.247-18.335-18.338V161.879L194.708,161.879z M249.689,204.943
                c3.483,0,6.403-2.942,6.403-6.429v-36.635c0-3.472-2.92-6.412-6.403-6.412h-36.646c-3.482,0-6.426,2.939-6.426,6.412v36.635
                c0,3.486,2.943,6.429,6.426,6.429H249.689z"></path>
            <path fill="#FFFFFF" d="M275.29,143.557h54.957c10.09,0,18.338,8.248,18.338,18.322v36.635c0,10.093-8.248,18.338-18.338,18.338
                H275.29V143.557z M330.247,204.943c3.479,0,6.4-2.942,6.4-6.429v-36.635c0-3.472-2.922-6.412-6.4-6.412H287.17v49.475
                L330.247,204.943L330.247,204.943z"></path>
            <rect x="76.617" y="225.238" fill="#FFFFFF" width="271.967" height="11.879"></rect>
            <path fill="#FFFFFF" d="M283.764,281.642c-11.172,0-20.268-9.104-20.268-20.31c0-11.174,9.096-20.271,20.268-20.271
                c11.176,0,20.283,9.097,20.283,20.271C304.047,272.537,294.939,281.642,283.764,281.642z M283.764,250.142
                c-6.174,0-11.193,5.049-11.193,11.19c0,6.188,5.02,11.215,11.193,11.215c6.188,0,11.191-5.026,11.191-11.215
                C294.956,255.188,289.952,250.142,283.764,250.142z"></path>
            <path fill="#FFFFFF" d="M328.288,281.642c-11.215,0-20.314-9.104-20.314-20.31c0-11.174,9.1-20.271,20.314-20.271
                c11.18,0,20.273,9.097,20.273,20.271C348.563,272.537,339.467,281.642,328.288,281.642z M328.288,250.142
                c-6.186,0-11.227,5.049-11.227,11.19c0,6.188,5.041,11.215,11.227,11.215c6.141,0,11.195-5.026,11.195-11.215
                C339.483,255.188,334.428,250.142,328.288,250.142z"></path>
            <rect x="175.559" y="233.472" fill="#FFFFFF" width="11.909" height="48.17"></rect>
        </g>
    </g>
    </svg>