<?xml version="1.0" standalone="no"?>
<!DOCTYPE svg PUBLIC "-//W3C//DTD SVG 20010904//EN"
 "http://www.w3.org/TR/2001/REC-SVG-20010904/DTD/svg10.dtd">
<svg version="1.0" xmlns="http://www.w3.org/2000/svg"
 width="288.000000pt" height="288.000000pt" viewBox="0 0 288.000000 288.000000"
 preserveAspectRatio="xMidYMid meet">
<metadata>
Created by potrace 1.11, written by Peter Selinger 2001-2013
</metadata>
<g transform="translate(0.000000,288.000000) scale(0.100000,-0.100000)"
fill="#000000" stroke="none">
<path d="M264 2120 c-44 -10 -89 -44 -115 -87 -22 -36 -23 -46 -24 -261 -1
-238 5 -274 47 -319 54 -59 76 -63 396 -63 l293 0 -3 61 -3 61 -282 0 c-258 0
-285 1 -305 18 -21 17 -22 24 -23 216 -1 110 3 209 8 221 6 13 19 26 31 30 12
4 145 7 296 8 l275 0 3 62 3 62 -283 -1 c-156 0 -297 -4 -314 -8z"/>
<path d="M930 2067 l0 -63 48 1 c26 1 53 0 60 -3 9 -3 12 -74 12 -308 l0 -304
63 0 62 0 0 368 0 367 -123 3 -122 2 0 -63z"/>
<path d="M1366 2115 c-21 -7 -51 -26 -67 -41 -49 -47 -55 -86 -54 -329 1 -242
5 -258 65 -309 52 -43 88 -48 326 -44 220 3 221 3 261 30 24 16 49 44 62 70
19 41 21 61 21 259 0 118 -5 231 -10 251 -13 44 -67 98 -115 115 -51 18 -437
16 -489 -2z m474 -133 c16 -19 18 -44 17 -224 0 -268 21 -247 -247 -246 -246
0 -240 -3 -241 116 -1 153 2 327 7 343 8 30 44 34 246 34 194 -1 201 -1 218
-23z"/>
<path d="M2050 1760 l0 -370 289 0 c307 0 335 4 385 49 57 52 62 76 61 328 0
260 -3 271 -84 328 l-43 30 -304 3 -304 2 0 -370z m577 237 c12 -5 25 -18 29
-30 11 -32 12 -377 1 -410 -5 -16 -19 -32 -31 -36 -11 -5 -118 -8 -236 -7
l-215 1 -2 245 -1 245 216 0 c120 -1 227 -4 239 -8z"/>
<path d="M2250 1661 c-29 -5 -35 -10 -35 -31 0 -22 5 -25 43 -28 23 -2 42 -8
42 -14 0 -7 -16 -9 -45 -6 -25 3 -45 2 -45 -2 0 -12 23 -25 40 -24 8 1 25 2
36 3 24 1 37 23 28 46 -4 10 -20 15 -45 15 -21 0 -39 5 -39 10 0 6 3 10 8 11
4 0 17 2 29 5 12 2 25 -1 28 -6 8 -13 25 -13 25 0 0 16 -34 26 -70 21z"/>
<path d="M2359 1650 c-5 -68 6 -115 18 -72 4 16 13 22 34 22 26 0 34 -9 30
-32 0 -5 4 -8 9 -8 6 0 10 23 10 50 0 41 -3 50 -17 51 -10 0 -33 1 -51 2 -22
1 -32 -3 -33 -13z m81 -17 c0 -8 -13 -13 -30 -13 -18 0 -30 5 -30 13 0 8 12
13 30 12 17 0 30 -5 30 -12z"/>
<path d="M2533 1662 c-13 -2 -23 -6 -24 -10 -11 -81 -6 -91 47 -96 41 -4 54
10 54 59 0 39 -2 43 -27 46 -16 2 -38 3 -50 1z m55 -50 c3 -31 2 -32 -32 -32
-33 0 -36 2 -36 29 0 30 10 38 45 36 15 -1 21 -10 23 -33z"/>
<path d="M2330 1564 c0 -8 5 -12 10 -9 6 3 10 10 10 16 0 5 -4 9 -10 9 -5 0
-10 -7 -10 -16z"/>
<path d="M2470 1570 c0 -5 5 -10 10 -10 6 0 10 5 10 10 0 6 -4 10 -10 10 -5 0
-10 -4 -10 -10z"/>
<path d="M2620 1564 c0 -8 5 -12 10 -9 6 3 10 10 10 16 0 5 -4 9 -10 9 -5 0
-10 -7 -10 -16z"/>
<path d="M64 1250 l1 -60 35 0 c19 -1 241 -1 493 -1 l457 -1 1 -211 c1 -117 1
-217 0 -224 -1 -7 19 -11 61 -10 l63 2 0 220 0 220 805 2 805 1 1 61 0 61
-1361 0 -1361 0 0 -60z"/>
<path d="M2089 1146 c-92 -27 -147 -95 -154 -189 -9 -125 108 -231 232 -211
181 29 235 269 84 370 -47 31 -115 43 -162 30z m124 -125 c77 -76 1 -204 -105
-178 -60 15 -97 88 -73 144 33 76 120 93 178 34z"/>
<path d="M2495 1133 c-125 -66 -156 -225 -63 -325 96 -101 267 -78 329 44 54
105 8 239 -98 284 -43 19 -131 17 -168 -3z m135 -88 c40 -21 60 -53 60 -98 0
-55 -52 -107 -107 -107 -122 0 -153 175 -36 210 41 12 51 12 83 -5z"/>
</g>
</svg>
